HIERARCHY
ROOT joint_Root
{
	OFFSET 0.0 0.0 0.0
	CHANNELS 6 Xposition Yposition Zposition Zrotation Xrotation Yrotation 
	JOINT Hips
	{
		OFFSET -0.726466 93.3139 -2.00062
		CHANNELS 6 Xposition Yposition Zposition Zrotation Xrotation Yrotation 
		JOINT Spine
		{
			OFFSET 15.7357 0.0 0.0
			CHANNELS 6 Xposition Yposition Zposition Zrotation Xrotation Yrotation 
			JOINT Chest
			{
				OFFSET 8.98455 -0.406207 0.0
				CHANNELS 6 Xposition Yposition Zposition Zrotation Xrotation Yrotation 
				JOINT Neck
				{
					OFFSET 16.3773 0.0 0.0
					CHANNELS 6 Xposition Yposition Zposition Zrotation Xrotation Yrotation 
					JOINT Head
					{
						OFFSET 6.45672 0.0 0.0
						CHANNELS 6 Xposition Yposition Zposition Zrotation Xrotation Yrotation 
						End Site
						{
							OFFSET 0.0 0.0 0.0
						}
					}
				}
				JOINT Shoulder_L
				{
					OFFSET 12.9942 -0.242716 4.98039
					CHANNELS 6 Xposition Yposition Zposition Zrotation Xrotation Yrotation 
					JOINT UpperArm_L
					{
						OFFSET 5.34809 0.0 0.0
						CHANNELS 6 Xposition Yposition Zposition Zrotation Xrotation Yrotation 
						JOINT LowerArm_L
						{
							OFFSET 24.3286 1.87007e-05 0.0
							CHANNELS 6 Xposition Yposition Zposition Zrotation Xrotation Yrotation 
							JOINT Hand_L
							{
								OFFSET 22.2916 0.0 0.0
								CHANNELS 6 Xposition Yposition Zposition Zrotation Xrotation Yrotation 
								End Site
								{
									OFFSET 0.0 0.0 0.0
								}
							}
						}
					}
				}
				JOINT Shoulder_R
				{
					OFFSET 12.9945 -0.242716 -4.98039
					CHANNELS 6 Xposition Yposition Zposition Zrotation Xrotation Yrotation 
					JOINT UpperArm_R
					{
						OFFSET -5.34813 0.0 0.0
						CHANNELS 6 Xposition Yposition Zposition Zrotation Xrotation Yrotation 
						JOINT LowerArm_R
						{
							OFFSET -24.3289 0.000322201 0.0
							CHANNELS 6 Xposition Yposition Zposition Zrotation Xrotation Yrotation 
							JOINT Hand_R
							{
								OFFSET -22.2915 -0.000108084 0.0
								CHANNELS 6 Xposition Yposition Zposition Zrotation Xrotation Yrotation 
								End Site
								{
									OFFSET 0.0 0.0 0.0
								}
							}
						}
					}
				}
			}
		}
		JOINT UpperLeg_L
		{
			OFFSET -2.19248 -6.46944 0.0
			CHANNELS 6 Xposition Yposition Zposition Zrotation Xrotation Yrotation 
			JOINT LowerLeg_L
			{
				OFFSET 39.0811 0.0 -1.23785e-05
				CHANNELS 6 Xposition Yposition Zposition Zrotation Xrotation Yrotation 
				JOINT Foot_L
				{
					OFFSET 40.9854 0.0 -1.26872e-05
					CHANNELS 6 Xposition Yposition Zposition Zrotation Xrotation Yrotation 
					JOINT Toes_L
					{
						OFFSET 11.7543 0.0 0.0
						CHANNELS 6 Xposition Yposition Zposition Zrotation Xrotation Yrotation 
						End Site
						{
							OFFSET 0.0 0.0 0.0
						}
					}
				}
			}
		}
		JOINT UpperLeg_R
		{
			OFFSET -2.19251 6.46944 0.0
			CHANNELS 6 Xposition Yposition Zposition Zrotation Xrotation Yrotation 
			JOINT LowerLeg_R
			{
				OFFSET -39.0811 -0.00228153 -0.0401928
				CHANNELS 6 Xposition Yposition Zposition Zrotation Xrotation Yrotation 
				JOINT Foot_R
				{
					OFFSET -40.9854 0.0 0.0
					CHANNELS 6 Xposition Yposition Zposition Zrotation Xrotation Yrotation 
					JOINT Toes_R
					{
						OFFSET -11.7543 0.0 0.0
						CHANNELS 6 Xposition Yposition Zposition Zrotation Xrotation Yrotation 
						End Site
						{
							OFFSET 0.0 0.0 0.0
						}
					}
				}
			}
		}
	}
}
MOTION
Frames:	7
Frame Time:	0.0333333
0.000000 0.000000 0.000000 0.000000 0.000000 -0.000000 -1.168250 92.177800 -3.768210 87.631600 -1.401720 4.487950 15.735700 0.000005 -0.000001 86.327500 85.298400 -85.589300 8.984550 -0.406207 -0.000000 1.622600 -0.641533 1.484220 16.377300 -0.000001 -0.000001 0.543316 -3.165480 1.356340 6.456720 -0.000001 -0.000000 2.041770 -2.162770 -3.054220 12.994200 -0.242716 4.980390 -89.963500 -0.122856 -73.432000 5.348090 -0.000007 -0.000001 -67.112400 37.915800 -15.256200 24.328600 0.000019 0.000005 1.151110 2.671580 -23.318800 22.291600 -0.000001 0.000005 5.173360 5.519310 -7.332730 12.994500 -0.242716 -4.980390 88.071400 5.830370 -71.660500 -5.348130 -0.000001 -0.000004 -65.729600 34.113300 -15.291500 -24.328900 0.000322 -0.000009 2.253580 6.758760 -18.496800 -22.291500 -0.000108 -0.000004 12.122600 5.443160 -4.397040 -2.192480 -6.469440 -0.000000 -168.993000 -14.943500 -2.831190 39.081100 -0.000007 -0.000012 -0.172197 0.431360 21.761900 40.985400 -0.000006 -0.000013 -5.586670 3.470160 -62.712800 11.754300 -0.000000 0.000003 -0.000028 -0.000335 -16.590600 -2.192510 6.469440 -0.000001 174.975000 19.630500 178.858000 -39.081100 -0.002282 -0.040193 -0.049080 0.147119 19.605200 -40.985400 0.000008 0.000006 -3.087750 2.728000 -62.164600 -11.754300 -0.000006 -0.000006 -0.006944 -0.079184 -19.796600
0.000000 0.000000 0.000000 0.000000 0.000000 -0.000000 -1.160160 92.173300 -3.816110 87.628000 -1.400270 4.501060 15.735700 0.000005 -0.000001 86.311300 85.323800 -85.554200 8.984550 -0.406207 -0.000000 1.571850 -0.642277 1.521580 16.377300 -0.000001 -0.000001 0.233453 -3.136530 1.390210 6.456720 -0.000001 -0.000000 1.817560 -2.075660 -2.954790 12.994200 -0.242716 4.980390 -89.964500 -0.118794 -73.346200 5.348090 -0.000007 -0.000001 -66.570800 36.593600 -15.418500 24.328600 0.000019 0.000005 1.453090 3.315380 -23.682700 22.291600 -0.000001 0.000005 4.808520 5.516800 -7.225970 12.994500 -0.242716 -4.980390 88.083600 5.731770 -71.477800 -5.348130 -0.000001 -0.000004 -65.746700 31.210000 -15.018600 -24.328900 0.000322 -0.000009 2.254300 6.559890 -19.021700 -22.291500 -0.000108 -0.000004 12.445000 5.448910 -4.600350 -2.192480 -6.469440 -0.000000 -168.998000 -14.906100 -2.878690 39.081100 -0.000007 -0.000012 -0.172186 0.430142 21.816400 40.985400 -0.000006 -0.000013 -5.581000 3.461560 -62.713900 11.754300 -0.000000 0.000003 -0.000026 -0.000320 -16.590100 -2.192510 6.469440 -0.000001 174.978000 19.591600 178.820000 -39.081100 -0.002282 -0.040193 -0.050645 0.151256 19.636100 -40.985400 0.000008 0.000006 -3.149630 2.703850 -62.144700 -11.754300 -0.000006 -0.000006 -0.007238 -0.081698 -19.899200
0.000000 0.000000 0.000000 0.000000 0.000000 -0.000000 -1.149780 92.189400 -3.890530 87.637700 -1.344350 4.471490 15.735700 0.000005 -0.000001 86.182400 85.364900 -85.423300 8.984550 -0.406207 -0.000000 1.488450 -0.658455 1.525440 16.377300 -0.000001 -0.000001 -0.061956 -3.127320 1.452430 6.456720 -0.000001 -0.000000 1.475830 -1.990710 -2.743020 12.994200 -0.242716 4.980390 -89.930000 -0.231265 -73.167600 5.348090 -0.000007 -0.000001 -65.138700 34.901400 -16.349800 24.328600 0.000019 0.000005 1.995660 4.539400 -23.762000 22.291600 -0.000001 0.000005 5.072560 5.510890 -6.980440 12.994500 -0.242716 -4.980390 88.097200 5.628300 -71.286800 -5.348130 -0.000001 -0.000004 -65.270300 27.327600 -14.998000 -24.328900 0.000322 -0.000009 2.227720 6.213290 -19.778000 -22.291500 -0.000108 -0.000004 12.809800 5.456390 -4.869330 -2.192480 -6.469440 -0.000000 -169.037000 -14.904100 -2.928650 39.081100 -0.000007 -0.000012 -0.170633 0.428220 21.726000 40.985400 -0.000006 -0.000013 -5.558580 3.502140 -62.614300 11.754300 -0.000000 0.000003 -0.000025 -0.000307 -16.589600 -2.192510 6.469440 -0.000001 175.018000 19.535300 178.758000 -39.081100 -0.002282 -0.040193 -0.047039 0.141589 19.579800 -40.985400 0.000008 0.000006 -3.068300 2.578000 -62.079100 -11.754300 -0.000006 -0.000006 -0.007393 -0.083004 -19.952500
0.000000 0.000000 0.000000 0.000000 0.000000 -0.000000 -1.144730 92.196600 -3.986400 87.644800 -1.272160 4.420900 15.735700 0.000005 -0.000001 86.065400 85.421300 -85.307900 8.984550 -0.406207 -0.000000 1.374710 -0.670290 1.521830 16.377300 -0.000001 -0.000001 -0.378064 -3.126870 1.471750 6.456720 -0.000001 -0.000000 1.167370 -2.020540 -2.396160 12.994200 -0.242716 4.980390 -89.866400 -0.437924 -73.036300 5.348090 -0.000007 -0.000001 -63.339900 31.657600 -17.619400 24.328600 0.000019 0.000005 2.302640 5.331190 -23.400800 22.291600 -0.000001 0.000005 6.669480 5.509580 -6.923840 12.994500 -0.242716 -4.980390 88.132400 5.485370 -71.164800 -5.348130 -0.000001 -0.000004 -63.906600 22.988600 -15.594300 -24.328900 0.000322 -0.000009 2.424780 6.501000 -20.514400 -22.291500 -0.000108 -0.000004 13.355600 5.453390 -4.760250 -2.192480 -6.469440 -0.000000 -169.093000 -14.885600 -3.081290 39.081100 -0.000007 -0.000012 -0.168861 0.423713 21.728900 40.985400 -0.000006 -0.000013 -5.530270 3.512480 -62.532900 11.754300 -0.000000 0.000003 -0.000024 -0.000298 -16.589200 -2.192510 6.469440 -0.000001 175.051000 19.574000 178.649000 -39.081100 -0.002282 -0.040193 -0.047071 0.141759 19.569500 -40.985400 0.000008 0.000006 -3.075990 2.518380 -62.017300 -11.754300 -0.000006 -0.000006 -0.007541 -0.084242 -20.003100
0.000000 0.000000 0.000000 0.000000 0.000000 -0.000000 -1.149050 92.214200 -4.081700 87.662200 -1.204030 4.396860 15.735700 0.000005 -0.000001 85.998400 85.493800 -85.237700 8.984550 -0.406207 -0.000000 1.229480 -0.672013 1.527410 16.377300 -0.000001 -0.000001 -0.724092 -3.109190 1.524320 6.456720 -0.000001 -0.000000 0.818455 -2.053700 -2.106490 12.994200 -0.242716 4.980390 -89.782000 -0.707673 -72.876900 5.348090 -0.000007 -0.000001 -61.410600 26.778000 -18.965300 24.328600 0.000019 0.000005 1.892960 4.484020 -22.915000 22.291600 -0.000001 0.000005 8.198470 5.514850 -7.144890 12.994500 -0.242716 -4.980390 88.191700 5.272650 -71.039800 -5.348130 -0.000001 -0.000004 -61.633800 18.461500 -16.822700 -24.328900 0.000322 -0.000009 2.605540 6.771650 -21.111000 -22.291500 -0.000108 -0.000004 13.887300 5.453600 -4.768630 -2.192480 -6.469440 -0.000000 -169.139000 -14.832000 -3.140140 39.081100 -0.000007 -0.000012 -0.167886 0.423655 21.617600 40.985400 -0.000006 -0.000013 -5.524410 3.502450 -62.404000 11.754300 -0.000000 0.000003 -0.000024 -0.000296 -16.589100 -2.192510 6.469440 -0.000001 175.070000 19.649400 178.581000 -39.081100 -0.002282 -0.040193 -0.044189 0.134006 19.521700 -40.985400 0.000008 0.000006 -2.965780 2.508020 -61.938600 -11.754300 -0.000006 -0.000006 -0.007369 -0.082801 -19.944200
0.000000 0.000000 0.000000 0.000000 0.000000 -0.000000 -1.141630 92.224100 -4.174670 87.633700 -1.214070 4.301550 15.735700 0.000005 -0.000001 86.014300 85.601700 -85.227000 8.984550 -0.406207 -0.000000 1.014410 -0.657560 1.579060 16.377300 -0.000001 -0.000001 -1.189880 -3.075320 1.584400 6.456720 -0.000001 -0.000000 0.522222 -2.043500 -1.852840 12.994200 -0.242716 4.980390 -89.700500 -0.969175 -72.825600 5.348090 -0.000007 -0.000001 -59.404000 20.501400 -20.258000 24.328600 0.000019 0.000005 1.737940 4.110450 -22.942500 22.291600 -0.000001 0.000005 9.005630 5.510150 -6.947510 12.994500 -0.242716 -4.980390 88.293400 4.960080 -70.986400 -5.348130 -0.000001 -0.000004 -58.903400 13.470700 -18.443200 -24.328900 0.000322 -0.000009 2.723140 6.841850 -21.773100 -22.291500 -0.000108 -0.000004 14.414900 5.455650 -4.842310 -2.192480 -6.469440 -0.000000 -169.157000 -14.851500 -3.307420 39.081100 -0.000007 -0.000012 -0.167417 0.422564 21.613400 40.985400 -0.000006 -0.000013 -5.508020 3.491670 -62.334700 11.754300 -0.000000 0.000003 -0.000036 -0.000428 -16.594300 -2.192510 6.469440 -0.000001 175.148000 19.689200 178.436000 -39.081100 -0.002282 -0.040193 -0.044191 0.134487 19.457800 -40.985400 0.000008 0.000006 -2.956320 2.539220 -61.833200 -11.754300 -0.000006 -0.000006 -0.007249 -0.081786 -19.902800
0.000000 0.000000 0.000000 0.000000 0.000000 -0.000000 -1.144940 92.241900 -4.269330 87.639000 -1.221520 4.236940 15.735700 0.000005 -0.000001 85.960000 85.711100 -85.160100 8.984550 -0.406207 -0.000000 0.795559 -0.652745 1.603120 16.377300 -0.000001 -0.000001 -1.715520 -3.037610 1.646770 6.456720 -0.000001 -0.000000 0.115552 -2.057120 -1.613060 12.994200 -0.242716 4.980390 -89.597500 -1.301500 -72.812500 5.348090 -0.000007 -0.000001 -56.965300 14.161300 -21.779400 24.328600 0.000019 0.000005 1.646840 3.830580 -23.284400 22.291600 -0.000001 0.000005 10.211300 5.516040 -7.192860 12.994500 -0.242716 -4.980390 88.396300 4.654250 -70.964300 -5.348130 -0.000001 -0.000004 -56.032100 7.788790 -20.301600 -24.328900 0.000322 -0.000009 2.821670 6.806420 -22.588200 -22.291500 -0.000108 -0.000004 14.963100 5.460270 -5.010790 -2.192480 -6.469440 -0.000000 -169.204000 -14.886500 -3.395350 39.081100 -0.000007 -0.000012 -0.163401 0.414353 21.522100 40.985400 -0.000006 -0.000013 -5.490650 3.482060 -62.224300 11.754300 -0.000000 0.000003 -0.000023 -0.000291 -16.588900 -2.192510 6.469440 -0.000001 175.210000 19.676000 178.321000 -39.081100 -0.002282 -0.040193 -0.041345 0.126818 19.403300 -40.985400 0.000008 0.000006 -2.827290 2.514820 -61.754600 -11.754300 -0.000006 -0.000006 -0.007345 -0.082601 -19.936000
